<svg xmlns="http://www.w3.org/2000/svg" viewBox="0 0 35 35"><defs><style>.cls-1{fill:#ff6831;stroke:#ff6831;stroke-miterlimit:10;stroke-width:0.28px;}.cls-2{fill:none;}</style></defs><g id="Livello_2" data-name="Livello 2"><g id="Livello_1-2" data-name="Livello 1"><path class="cls-1" d="M5.17,17.4A12.58,12.58,0,0,1,18.06,4.79,12.58,12.58,0,0,1,30.83,17.67a12.6,12.6,0,0,1-13,12.54A12.58,12.58,0,0,1,5.17,17.4Zm24.32,0a11.49,11.49,0,0,0-23,0A11.58,11.58,0,0,0,18.1,28.88,11.58,11.58,0,0,0,29.49,17.44Z"/><path class="cls-1" d="M21,20.75a19.7,19.7,0,0,1-3.31,1.13,4.3,4.3,0,0,1-4.56-2.43,4.44,4.44,0,0,1,.76-5A4.71,4.71,0,0,1,19,13.34c.41.15,1,.33,1.31.14,1.19-.7,1.52-.26,1.51.9,0,1.34,0,2.68,0,4a2,2,0,0,0,2,2.17c1.12,0,1.73-.86,1.86-2.23A7.61,7.61,0,0,0,16,10.17a7.55,7.55,0,0,0-5.21,10,7.78,7.78,0,0,0,10.49,4.29c1.21-.53,1.21-.53,1.93.49A8.76,8.76,0,0,1,14.71,26,9.17,9.17,0,0,1,8.88,16.4a9.27,9.27,0,0,1,9-8,9.09,9.09,0,0,1,9,7.22,15.54,15.54,0,0,1,.26,2.64,3.28,3.28,0,0,1-2,3.37A3.43,3.43,0,0,1,21.3,21,2,2,0,0,0,21,20.75Zm-.75-3.29a3,3,0,0,0-3-3,3.07,3.07,0,0,0-.08,6.14A3,3,0,0,0,20.24,17.46Z"/><rect class="cls-2" width="35" height="35"/></g></g></svg>