<svg xmlns="http://www.w3.org/2000/svg" viewBox="0 0 35 35"><defs><style>.cls-1{fill:#ff6831;}.cls-2{fill:none;}</style></defs><g id="Livello_2" data-name="Livello 2"><g id="Livello_1-2" data-name="Livello 1"><path class="cls-1" d="M5.41,17.6c0-1.68,0-3.37,0-5.06A7.13,7.13,0,0,1,12.5,5.35q5.15-.06,10.29,0a7.11,7.11,0,0,1,7.11,7.17q.06,5.06,0,10.13a7.11,7.11,0,0,1-7.09,7.19q-5.14.06-10.29,0a7.13,7.13,0,0,1-7.11-7.17C5.38,21,5.41,19.29,5.41,17.6ZM17.76,6.75c-1.58,0-3.16,0-4.74,0A6,6,0,0,0,6.82,13c-.06,3.06-.05,6.12,0,9.18A6,6,0,0,0,13,28.42c3.11.1,6.23.09,9.34,0a6,6,0,0,0,6.19-6.21c.08-3.11.08-6.23,0-9.34a6,6,0,0,0-6.14-6.11C20.82,6.7,19.29,6.75,17.76,6.75Z"/><path class="cls-1" d="M24,17.52a6.11,6.11,0,0,1-6.22,6.36,6.1,6.1,0,0,1-6.36-6.21,6.08,6.08,0,0,1,6.22-6.36A6.1,6.1,0,0,1,24,17.52Zm-1.43.12a5,5,0,0,0-4.82-4.9,5,5,0,0,0-4.9,4.81,5,5,0,0,0,4.81,4.9A5,5,0,0,0,22.52,17.64Z"/><path class="cls-1" d="M25.31,10.94c-.06.63-.37,1.05-.95,1.1a1,1,0,0,1-1.15-1A1,1,0,0,1,24.13,10C24.8,9.89,25.16,10.35,25.31,10.94Z"/><rect class="cls-2" width="35" height="35"/></g></g></svg>