<svg xmlns="http://www.w3.org/2000/svg" viewBox="0 0 35 35"><defs><style>.cls-1{fill:#ff6831;}.cls-2{fill:none;}</style></defs><g id="Livello_2" data-name="Livello 2"><g id="Livello_1-2" data-name="Livello 1"><path class="cls-1" d="M17.53,29.47c-2.78,0-5.55,0-8.32,0C6.92,29.45,6,28.6,6,26.34Q6,17.69,6,9c0-2.18.89-3.08,3-3.09q8.58,0,17.15,0c2.24,0,3.09.89,3.1,3.21q0,8.56,0,17.14c0,2.3-.86,3.16-3.13,3.17C23.3,29.48,20.41,29.47,17.53,29.47ZM27.72,17.71c0-2.68,0-5.36,0-8,0-1.42-.45-2.15-2-2.14-5.37,0-10.74,0-16.11,0-1.35,0-2,.48-2,1.93q0,8.22,0,16.44c0,1.43.62,2,2,1.95,5.37,0,10.74,0,16.1,0,1.52,0,2-.67,2-2.11C27.69,23.08,27.72,20.4,27.72,17.71Z"/><path class="cls-1" d="M15.62,20.12c0-1.11,0-2.22,0-3.33,0-.56-.08-1.26.69-1.41.6-.11,1.37-.33,1.74.33s.67.46,1.16.13c2.86-1.92,5.46-.64,5.65,2.79.09,1.57.05,3.15.08,4.72,0,1-.16,1.7-1.4,1.69s-1.24-.9-1.23-1.79c0-1.23,0-2.45,0-3.67s-.57-2.22-1.93-2.24a2,2,0,0,0-2.08,2.13,38.51,38.51,0,0,0-.05,4c0,1-.19,1.57-1.32,1.55s-1.32-.68-1.3-1.6C15.64,22.33,15.62,21.23,15.62,20.12Z"/><path class="cls-1" d="M13,20.17c0,1.17,0,2.33,0,3.5,0,.81-.2,1.35-1.13,1.36s-1.5-.18-1.5-1.21c0-2.45,0-4.89,0-7.34,0-.91.53-1.18,1.34-1.18s1.31.28,1.29,1.21C13,17.73,13,19,13,20.17Z"/><path class="cls-1" d="M11.56,13.2a1.47,1.47,0,0,1-1.39-1.51,1.35,1.35,0,0,1,1.44-1.57,1.42,1.42,0,0,1,1.59,1.46C13.24,12.49,12.69,13.1,11.56,13.2Z"/><rect class="cls-2" width="35" height="35"/></g></g></svg>